Pistol, Suitcase and Three stinking barrels is a gangster comedy which tells the story of the 23-year-old student Anton, a.k.a "The Beautiful". He has a dream but in order for it to come true he must first find money. The Beautiful decides to risk it all and unfortunately he finds himself mixed up in a hell of a mess of intertwining absurd situations with a drug lord fascinated with Lego, a group of small time crooks, a dangerous top cop, a sexy blond, corrupted government agents, a football player and his mistress, etc.



Pistolet,kufar.i.tri.smardyashti.varela.WEBRip.XviD.BGAUDIO.API.avi



Format                                   : AVI
Format/Info                              : Audio Video Interleave
Format profile                           : OpenDML
File size                                : 1.28 GiB
Duration                                 : 1h 37mn
Overall bit rate                         : 1 886 Kbps
Writing application                      : Lavf52.84.0

Video
ID                                       : 0
Format                                   : xvid
Codec ID                                 : xvid
Duration                                 : 1h 37mn
Bit rate                                 : 1 742 Kbps
Width                                    : 852 pixels
Height                                   : 480 pixels
Display aspect ratio                     : 16:9
Frame rate                               : 25.000 fps
Bits/(Pixel*Frame)                       : 0.170
Stream size                              : 1.18 GiB (92%)

Audio
ID                                       : 1
Format                                   : MPEG Audio
Format version                           : Version 1
Format profile                           : Layer 3
Mode                                     : Joint stereo
Mode extension                           : MS Stereo
Codec ID                                 : 55
Codec ID/Hint                            : MP3
Duration                                 : 1h 37mn
Bit rate mode                            : Constant
Bit rate                                 : 128 Kbps
Channel(s)                               : 2 channels
Sampling rate                            : 48.0 KHz
Compression mode                         : Lossy
Stream size                              : 89.1 MiB (7%)
Alignment                                : Aligned on interleaves
Interleave, duration                     : 24 ms (0.60 video frame)
Writing library                          : LAME3.98.4